<svg width="16" height="15" viewBox="0 0 16 15" fill="none" xmlns="http://www.w3.org/2000/svg">
<path fill-rule="evenodd" clip-rule="evenodd" d="M7.10612 0.789083C7.47467 0.0520971 8.52569 0.0520556 8.89421 0.789083L15.276 13.5528C15.6083 14.2175 15.1256 14.9997 14.3825 15H1.61784C0.87466 14.9998 0.391019 14.2175 0.72331 13.5528L7.10612 0.789083ZM8.00456 12C7.65959 12.0003 7.37956 12.28 7.37956 12.625C7.37958 12.97 7.65961 13.2498 8.00456 13.25C8.34973 13.25 8.62954 12.9702 8.62956 12.625C8.62956 12.2798 8.34974 12 8.00456 12ZM7.99968 4.00002C7.72374 4.00024 7.4997 4.22404 7.49968 4.50002V10C7.49973 10.276 7.72375 10.4998 7.99968 10.5C8.27576 10.5 8.49963 10.2761 8.49968 10V4.50002C8.49965 4.22392 8.27578 4.00005 7.99968 4.00002Z" fill="#EC0000"/>
</svg>
