<svg width="20" height="14" viewBox="0 0 20 14" fill="none" xmlns="http://www.w3.org/2000/svg">
<path fill-rule="evenodd" clip-rule="evenodd" d="M1.10124 0.36564C1.27166 0.148541 1.58618 0.110437 1.80339 0.280679L17.1237 12.3031C17.3407 12.4736 17.3789 12.7881 17.2087 13.0053C17.0382 13.2222 16.7237 13.2604 16.5065 13.0902L14.3698 11.4135C12.8759 12.3164 11.2297 13.0002 9.65788 13.0004C5.93923 13.0002 1.79655 9.18984 0.267254 7.64201C-0.0888543 7.28144 -0.0888264 6.71939 0.267254 6.3588C1.00213 5.61499 2.34184 4.34978 3.94694 3.23478L1.1862 1.06779C0.969052 0.897373 0.930982 0.582866 1.10124 0.36564ZM6.9694 5.60587C6.76309 6.03781 6.65788 6.51876 6.65788 7.00041C6.65805 8.50022 7.65821 10.0003 9.65788 10.0004C10.5111 10.0003 11.1804 9.72412 11.6696 9.29435L10.7751 8.59318C10.4426 8.84203 10.0513 9.00022 9.65788 9.00041C8.65809 9.00025 7.65813 8.0002 7.65788 7.00041C7.65788 6.75446 7.71967 6.50879 7.82585 6.27775L6.9694 5.60587Z" fill="#999999"/>
<path d="M9.65788 1.00041C13.3768 1.0009 17.5196 4.81133 19.0485 6.3588C19.4042 6.71938 19.4044 7.28156 19.0485 7.64201C18.5014 8.19575 17.6179 9.03704 16.5407 9.89201L12.651 6.84025C12.5823 5.39572 11.5861 4.00074 9.65788 4.00041C9.45783 4.00042 9.26761 4.01582 9.08757 4.04435L6.29948 1.85685C7.40307 1.34033 8.5491 1.00045 9.65788 1.00041Z" fill="#999999"/>
</svg>
